<svg xmlns="http://www.w3.org/2000/svg" viewBox="0 0 280 60" fill="none">
  <!-- Knight icon -->
  <g transform="translate(0, 2)">
    <!-- Knight body -->
    <path d="M28 6C28 6 20 11 20 19C20 21.5 21.2 23.2 22.5 24.5L20 29.5H17.5V34H20L17.5 44H34.5L32 34H34.5V29.5H32L29.5 24.5C30.8 23.2 32 21.5 32 19C32 11 28 6 28 6Z" fill="#CBA135"/>
    <!-- Eye -->
    <circle cx="26" cy="16" r="1.5" fill="#8B6F1F" opacity="0.7"/>
    <!-- Ear detail -->
    <path d="M24 8.5C24 8.5 26 6 28 6" stroke="#8B6F1F" stroke-width="0.8" fill="none" opacity="0.4"/>
    <!-- Base line -->
    <path d="M21.5 44H34.5" stroke="#8B6F1F" stroke-width="0.8" opacity="0.3"/>
    <path d="M19.5 47H36.5" stroke="#8B6F1F" stroke-width="0.6" opacity="0.2"/>
  </g>
  <!-- ChessGuru text -->
  <text x="52" y="38" font-family="Georgia, 'Playfair Display', serif" font-size="32" font-weight="400" fill="#1a1a1a" letter-spacing="-0.5">
    Chess<tspan font-weight="600" fill="#CBA135">Guru</tspan>
  </text>
</svg>
